<?xml version="1.0" standalone="no"?><!DOCTYPE svg PUBLIC "-//W3C//DTD SVG 1.1//EN" "http://www.w3.org/Graphics/SVG/1.1/DTD/svg11.dtd"><svg t="1638511414050" class="icon" viewBox="0 0 1024 1024" version="1.1" xmlns="http://www.w3.org/2000/svg" p-id="1904" xmlns:xlink="http://www.w3.org/1999/xlink" width="200" height="200"><defs><style type="text/css"></style></defs><path d="M613.044171 62.633113H406.865407c-30.87731 0-55.987073 25.123074-55.987073 55.987074v206.178764c0 30.863999 25.109764 55.987073 55.987073 55.987073H613.044171c30.87731 0 55.987073-25.123074 55.987074-55.987073V118.620187c0-30.863999-25.10874-55.987073-55.987074-55.987074z m-206.178764 262.165838V118.620187H613.044171l0.027645 206.178764H406.865407zM613.044171 638.632089H406.865407c-30.87731 0-55.987073 25.123074-55.987073 55.987074v206.178764c0 30.863999 25.109764 55.987073 55.987073 55.987073H613.044171c30.87731 0 55.987073-25.123074 55.987074-55.987073V694.619163c0-30.863999-25.10874-55.987073-55.987074-55.987074z m-206.178764 262.165838V694.619163H613.044171l0.027645 206.178764H406.865407zM259.069608 588.527237c-15.472955 0-27.993025 12.52007-27.993025 27.993025v86.139472c-89.295087-42.215816-133.51567-146.620379-99.097765-241.262195 22.034012-60.552578 72.334427-107.737309 134.582559-126.216391 14.816645-4.428304 23.263698-20.010815 18.863039-34.828483-4.428304-14.816645-19.846993-23.181788-34.827459-18.86304-79.141216 23.537076-143.138145 83.62481-171.214104 160.771498-43.523317 119.575472 10.428272 251.294223 121.029389 307.693922H92.038076c-15.472955 0-27.993025 12.52007-27.993025 27.993025s12.521094 27.994049 27.993025 27.994048h195.024557V616.521286c0.001024-15.472955-12.52007-27.994049-27.993025-27.994049zM821.463196 336.34121H924.510087c15.472955 0 27.994049-12.52007 27.994049-27.993025s-12.521094-27.994049-27.994049-27.994049H729.48553v189.420833c0 15.472955 12.521094 27.993025 27.994048 27.993025s27.993025-12.52007 27.993025-27.993025V380.837218c89.296111 42.215816 133.51567 146.620379 99.097765 241.262195-22.034012 60.552578-72.334427 107.737309-134.582559 126.216392-14.816645 4.428304-23.263698 20.010815-18.863039 34.828483 4.428304 14.816645 19.846993 23.181788 34.827459 18.863039 79.14224-23.537076 143.138145-83.62481 171.214104-160.771497 42.819908-117.640328-8.708145-247.030765-115.703137-304.89462z" fill="#3E3A39" p-id="1905"></path></svg>