<?xml version="1.0" standalone="no"?><!DOCTYPE svg PUBLIC "-//W3C//DTD SVG 1.1//EN" "http://www.w3.org/Graphics/SVG/1.1/DTD/svg11.dtd"><svg t="1638794975398" class="icon" viewBox="0 0 1024 1024" version="1.1" xmlns="http://www.w3.org/2000/svg" p-id="1483" xmlns:xlink="http://www.w3.org/1999/xlink" width="200" height="200"><defs><style type="text/css"></style></defs><path d="M541.8496 812.3904H481.28a14.3872 14.3872 0 0 1-14.336-13.056l-4.8128-50.432a171.4688 171.4688 0 0 1-30.2592-12.9536L393.3696 768a14.3872 14.3872 0 0 1-19.3536-0.9216l-42.752-42.752a14.3872 14.3872 0 0 1-0.9216-19.3536l32.5632-39.424a169.3696 169.3696 0 0 1-12.288-30.1568l-50.1248-4.7616a14.4384 14.4384 0 0 1-13.056-14.3872v-60.416a14.3872 14.3872 0 0 1 13.056-14.336l50.5344-4.8128A168.1408 168.1408 0 0 1 363.52 506.1632l-31.7952-38.5024a14.336 14.336 0 0 1 1.0752-19.3536l42.7008-42.752a14.4384 14.4384 0 0 1 19.456-1.0752l38.4512 31.7952a173.2096 173.2096 0 0 1 31.232-12.9536l4.6592-48.6912a14.3872 14.3872 0 0 1 14.336-13.056h60.416a14.4384 14.4384 0 0 1 14.3872 13.056l4.608 48.6912a171.776 171.776 0 0 1 32 13.3632l37.0688-30.72a14.3872 14.3872 0 0 1 19.4048 0.9216l42.7008 42.7008a14.3872 14.3872 0 0 1 0.9216 19.4048l-30.72 37.376a171.8272 171.8272 0 0 1 13.1584 32.4608l47.616 4.5056a14.4384 14.4384 0 0 1 13.056 14.336v60.4672a14.4384 14.4384 0 0 1-13.056 14.336l-48.5888 4.608a171.5712 171.5712 0 0 1-13.6704 31.8464l30.72 37.2224a14.5408 14.5408 0 0 1-0.9216 19.4048l-42.752 42.7008a14.336 14.336 0 0 1-19.3536 0.9216l-38.3488-31.6416a172.8512 172.8512 0 0 1-31.3856 12.4928l-4.608 49.0496a14.4896 14.4896 0 0 1-14.4384 13.312zM494.5408 783.36h34.2016l4.4032-46.08a14.4384 14.4384 0 0 1 11.2128-12.7488 138.8544 138.8544 0 0 0 42.0352-16.6912 14.4896 14.4896 0 0 1 16.64 1.28l35.84 29.5936 24.1664-24.1664-28.8768-34.9696a14.4896 14.4896 0 0 1-1.024-16.9984 139.8784 139.8784 0 0 0 18.1248-42.24 14.3872 14.3872 0 0 1 12.6464-10.9056l45.4144-4.352v-34.2016l-44.6464-4.1984a14.3872 14.3872 0 0 1-12.6976-11.2128 141.9776 141.9776 0 0 0-17.408-42.9568 14.4896 14.4896 0 0 1 1.1264-16.7424L664.576 460.8l-24.1664-24.1664-34.7136 28.7232a14.3872 14.3872 0 0 1-16.8448 1.0752 140.6464 140.6464 0 0 0-42.496-17.7152 14.4384 14.4384 0 0 1-11.0592-12.6976l-4.352-45.6192H496.64l-4.3008 45.6192A14.5408 14.5408 0 0 1 481.28 448.8704a140.7488 140.7488 0 0 0-41.8816 17.3056 14.336 14.336 0 0 1-16.7424-1.1264l-35.84-29.7984-24.32 24.1664 29.7984 35.84a14.4384 14.4384 0 0 1 1.1776 16.7424 140.032 140.032 0 0 0-17.152 40.96 14.336 14.336 0 0 1-12.8 11.3664l-47.4112 4.5056v34.2016l47.104 4.5056a14.3872 14.3872 0 0 1 12.6976 11.0592 140.3392 140.3392 0 0 0 16.5888 40.96 14.336 14.336 0 0 1-1.2288 16.64l-30.72 36.9152 24.576 24.1664 36.352-30.0544a14.336 14.336 0 0 1 16.8448-1.0752 142.6944 142.6944 0 0 0 40.96 17.5616 14.3872 14.3872 0 0 1 10.8544 12.5952z m229.12-165.1712z" p-id="1484"></path><path d="M512.768 680.2432a93.2352 93.2352 0 1 1 93.184-93.184 93.2864 93.2864 0 0 1-93.184 93.184z m0-157.5936a64.4096 64.4096 0 1 0 64.3584 64.4096 64.4608 64.4608 0 0 0-64.3584-64.4096z" p-id="1485"></path><path d="M944.128 886.6816H81.3568a14.4384 14.4384 0 0 1-14.4384-14.4384V150.784a14.3872 14.3872 0 0 1 14.4384-14.3872H944.128a14.3872 14.3872 0 0 1 14.4384 14.3872v721.4592a14.4384 14.4384 0 0 1-14.4384 14.4384z m-848.384-28.8256h833.9968V165.2224H95.744z" p-id="1486"></path><path d="M87.2448 274.4832h547.7376v38.2976H87.2448zM708.5568 274.4832h55.9616v38.2976h-55.9616zM817.5104 274.4832h55.9616v38.2976h-55.9616z" p-id="1487"></path></svg>