<?xml version="1.0" standalone="no"?><!DOCTYPE svg PUBLIC "-//W3C//DTD SVG 1.1//EN" "http://www.w3.org/Graphics/SVG/1.1/DTD/svg11.dtd"><svg t="1634124896460" class="icon" viewBox="0 0 1210 1024" version="1.1" xmlns="http://www.w3.org/2000/svg" p-id="4447" xmlns:xlink="http://www.w3.org/1999/xlink" width="236.328125" height="200"><defs><style type="text/css"></style></defs><path d="M451.274565 2.4817 0.858801 782.879044c-1.919672 3.384686-0.454659 5.91057 3.182615 5.91057l901.286187 0c3.637274 0 5.051769-2.62692 3.182615-5.91057L458.094454 2.4817C456.174781-0.852468 453.14372-0.80195 451.274565 2.4817zM90.93185 730.997372 453.093202 104.628478l362.161352 626.368894L90.93185 730.997372z" p-id="4448"></path><path d="M837.936998 973.482306c-113.614295 0-213.487777-59.964503-270.875878-150.492212l-57.438619 0c62.490388 119.625901 186.056669 201.009906 328.314496 201.009906 205.30391 0 371.759714-169.638418 371.759714-378.882709s-166.455803-378.882709-371.759714-378.882709c-57.084995 0-111.138928 13.134601-159.484361 36.524293l29.603369 41.778133c39.706908-17.883264 83.657302-27.784732 129.880993-27.784732 177.92332 0 322.151338 147.006491 322.151338 328.365014C1160.088336 826.475815 1015.860318 973.482306 837.936998 973.482306z" p-id="4449"></path></svg>